<mxfile host="Electron" agent="Mozilla/5.0 (Windows NT 10.0; Win64; x64) AppleWebKit/537.36 (KHTML, like Gecko) draw.io/24.7.17 Chrome/128.0.6613.36 Electron/32.0.1 Safari/537.36" version="24.7.17">
  <diagram name="Página-1" id="WkKPKTazwENrPzXx0WnP">
    <mxGraphModel dx="989" dy="577" grid="1" gridSize="10" guides="1" tooltips="1" connect="1" arrows="1" fold="1" page="1" pageScale="1" pageWidth="827" pageHeight="1169" math="0" shadow="0">
      <root>
        <mxCell id="0" />
        <mxCell id="1" parent="0" />
        <mxCell id="H7LrV84K1nSKYrDBj5kA-1" value="Administrativo&lt;div&gt;&amp;nbsp;&lt;/div&gt;" style="shape=umlActor;verticalLabelPosition=bottom;verticalAlign=top;html=1;outlineConnect=0;" vertex="1" parent="1">
          <mxGeometry x="150" y="140" width="30" height="60" as="geometry" />
        </mxCell>
        <mxCell id="H7LrV84K1nSKYrDBj5kA-2" value="Responsable" style="shape=umlActor;verticalLabelPosition=bottom;verticalAlign=top;html=1;outlineConnect=0;" vertex="1" parent="1">
          <mxGeometry x="150" y="400" width="30" height="60" as="geometry" />
        </mxCell>
        <mxCell id="H7LrV84K1nSKYrDBj5kA-12" style="rounded=0;orthogonalLoop=1;jettySize=auto;html=1;exitX=0;exitY=0.5;exitDx=0;exitDy=0;endArrow=none;endFill=0;elbow=vertical;" edge="1" parent="1" source="H7LrV84K1nSKYrDBj5kA-3">
          <mxGeometry relative="1" as="geometry">
            <mxPoint x="160" y="130" as="targetPoint" />
          </mxGeometry>
        </mxCell>
        <mxCell id="H7LrV84K1nSKYrDBj5kA-3" value="Subscribirse boletín circulares" style="ellipse;whiteSpace=wrap;html=1;" vertex="1" parent="1">
          <mxGeometry x="250" y="10" width="140" height="70" as="geometry" />
        </mxCell>
        <mxCell id="H7LrV84K1nSKYrDBj5kA-4" value="Buscar circulares por fecha" style="ellipse;whiteSpace=wrap;html=1;" vertex="1" parent="1">
          <mxGeometry x="280" y="90" width="140" height="70" as="geometry" />
        </mxCell>
        <mxCell id="H7LrV84K1nSKYrDBj5kA-14" style="rounded=0;orthogonalLoop=1;jettySize=auto;html=1;exitX=0;exitY=0.5;exitDx=0;exitDy=0;endArrow=none;endFill=0;" edge="1" parent="1" source="H7LrV84K1nSKYrDBj5kA-5" target="H7LrV84K1nSKYrDBj5kA-1">
          <mxGeometry relative="1" as="geometry" />
        </mxCell>
        <mxCell id="H7LrV84K1nSKYrDBj5kA-5" value="Ver detalles circular" style="ellipse;whiteSpace=wrap;html=1;" vertex="1" parent="1">
          <mxGeometry x="290" y="170" width="140" height="70" as="geometry" />
        </mxCell>
        <mxCell id="H7LrV84K1nSKYrDBj5kA-15" style="rounded=0;orthogonalLoop=1;jettySize=auto;html=1;exitX=0;exitY=0.5;exitDx=0;exitDy=0;endArrow=none;endFill=0;" edge="1" parent="1" source="H7LrV84K1nSKYrDBj5kA-7">
          <mxGeometry relative="1" as="geometry">
            <mxPoint x="170" y="389.9999999999999" as="targetPoint" />
          </mxGeometry>
        </mxCell>
        <mxCell id="H7LrV84K1nSKYrDBj5kA-7" value="Acceder sistema" style="ellipse;whiteSpace=wrap;html=1;" vertex="1" parent="1">
          <mxGeometry x="280" y="270" width="140" height="70" as="geometry" />
        </mxCell>
        <mxCell id="H7LrV84K1nSKYrDBj5kA-16" style="rounded=0;orthogonalLoop=1;jettySize=auto;html=1;exitX=0;exitY=0.5;exitDx=0;exitDy=0;endArrow=none;endFill=0;" edge="1" parent="1" source="H7LrV84K1nSKYrDBj5kA-8">
          <mxGeometry relative="1" as="geometry">
            <mxPoint x="190" y="409.9999999999999" as="targetPoint" />
          </mxGeometry>
        </mxCell>
        <mxCell id="H7LrV84K1nSKYrDBj5kA-8" value="Publicar una circular" style="ellipse;whiteSpace=wrap;html=1;" vertex="1" parent="1">
          <mxGeometry x="280" y="360" width="140" height="70" as="geometry" />
        </mxCell>
        <mxCell id="H7LrV84K1nSKYrDBj5kA-9" value="Borrar circular" style="ellipse;whiteSpace=wrap;html=1;" vertex="1" parent="1">
          <mxGeometry x="480" y="520" width="140" height="70" as="geometry" />
        </mxCell>
        <mxCell id="H7LrV84K1nSKYrDBj5kA-10" value="Modificar circular" style="ellipse;whiteSpace=wrap;html=1;" vertex="1" parent="1">
          <mxGeometry x="480" y="440" width="140" height="70" as="geometry" />
        </mxCell>
        <mxCell id="H7LrV84K1nSKYrDBj5kA-13" style="rounded=0;orthogonalLoop=1;jettySize=auto;html=1;exitX=0;exitY=0.5;exitDx=0;exitDy=0;endArrow=none;endFill=0;" edge="1" parent="1" source="H7LrV84K1nSKYrDBj5kA-4">
          <mxGeometry relative="1" as="geometry">
            <mxPoint x="190" y="140" as="targetPoint" />
          </mxGeometry>
        </mxCell>
        <mxCell id="H7LrV84K1nSKYrDBj5kA-19" value="Busqueda ampliada" style="ellipse;whiteSpace=wrap;html=1;" vertex="1" parent="1">
          <mxGeometry x="550" y="90" width="140" height="70" as="geometry" />
        </mxCell>
        <mxCell id="H7LrV84K1nSKYrDBj5kA-20" value="&amp;lt;&amp;lt; extend &amp;gt;&amp;gt;" style="html=1;verticalAlign=bottom;endArrow=open;dashed=1;endSize=8;curved=0;rounded=0;exitX=0;exitY=0.5;exitDx=0;exitDy=0;entryX=1;entryY=0.5;entryDx=0;entryDy=0;" edge="1" parent="1" source="H7LrV84K1nSKYrDBj5kA-19" target="H7LrV84K1nSKYrDBj5kA-4">
          <mxGeometry relative="1" as="geometry">
            <mxPoint x="620" y="260" as="sourcePoint" />
            <mxPoint x="540" y="260" as="targetPoint" />
          </mxGeometry>
        </mxCell>
        <mxCell id="H7LrV84K1nSKYrDBj5kA-21" value="Usuario y clave" style="ellipse;whiteSpace=wrap;html=1;" vertex="1" parent="1">
          <mxGeometry x="500" y="260" width="140" height="70" as="geometry" />
        </mxCell>
        <mxCell id="H7LrV84K1nSKYrDBj5kA-22" value="&amp;lt;&amp;lt; extend &amp;gt;&amp;gt;" style="html=1;verticalAlign=bottom;endArrow=open;dashed=1;endSize=8;curved=0;rounded=0;exitX=1;exitY=0.5;exitDx=0;exitDy=0;entryX=0;entryY=0.5;entryDx=0;entryDy=0;" edge="1" parent="1" source="H7LrV84K1nSKYrDBj5kA-7" target="H7LrV84K1nSKYrDBj5kA-21">
          <mxGeometry relative="1" as="geometry">
            <mxPoint x="560" y="135" as="sourcePoint" />
            <mxPoint x="430" y="135" as="targetPoint" />
          </mxGeometry>
        </mxCell>
        <mxCell id="H7LrV84K1nSKYrDBj5kA-25" style="rounded=0;orthogonalLoop=1;jettySize=auto;html=1;endArrow=none;endFill=0;" edge="1" parent="1" source="H7LrV84K1nSKYrDBj5kA-23">
          <mxGeometry relative="1" as="geometry">
            <mxPoint x="200" y="450" as="targetPoint" />
          </mxGeometry>
        </mxCell>
        <mxCell id="H7LrV84K1nSKYrDBj5kA-23" value="Buscar circular" style="ellipse;whiteSpace=wrap;html=1;" vertex="1" parent="1">
          <mxGeometry x="274" y="450" width="140" height="70" as="geometry" />
        </mxCell>
        <mxCell id="H7LrV84K1nSKYrDBj5kA-27" value="&amp;lt;&amp;lt;include&amp;gt;&amp;gt;" style="html=1;verticalAlign=bottom;endArrow=open;dashed=1;endSize=8;curved=0;rounded=0;exitX=1;exitY=0;exitDx=0;exitDy=0;entryX=0;entryY=0.5;entryDx=0;entryDy=0;" edge="1" parent="1" source="H7LrV84K1nSKYrDBj5kA-23" target="H7LrV84K1nSKYrDBj5kA-10">
          <mxGeometry relative="1" as="geometry">
            <mxPoint x="430" y="315" as="sourcePoint" />
            <mxPoint x="510" y="305" as="targetPoint" />
          </mxGeometry>
        </mxCell>
        <mxCell id="H7LrV84K1nSKYrDBj5kA-29" value="&amp;lt;&amp;lt;include&amp;gt;&amp;gt;" style="html=1;verticalAlign=bottom;endArrow=open;dashed=1;endSize=8;curved=0;rounded=0;entryX=0;entryY=0.5;entryDx=0;entryDy=0;" edge="1" parent="1" target="H7LrV84K1nSKYrDBj5kA-9">
          <mxGeometry relative="1" as="geometry">
            <mxPoint x="400" y="510" as="sourcePoint" />
            <mxPoint x="490" y="465" as="targetPoint" />
          </mxGeometry>
        </mxCell>
        <mxCell id="H7LrV84K1nSKYrDBj5kA-30" value="Logeado" style="ellipse;whiteSpace=wrap;html=1;" vertex="1" parent="1">
          <mxGeometry x="680" y="300" width="140" height="70" as="geometry" />
        </mxCell>
      </root>
    </mxGraphModel>
  </diagram>
</mxfile>
